<svg width="605" height="442" xmlns="http://www.w3.org/2000/svg" xmlns:xlink="http://www.w3.org/1999/xlink" overflow="hidden"><defs><clipPath id="clip0"><rect x="0" y="0" width="605" height="442"/></clipPath></defs><g clip-path="url(#clip0)"><rect x="0" y="0" width="605" height="441.59" fill="#FFFFFF"/><path d="M241.691 23.8821 280.029 23.8821 280.029 64.0226 241.691 64.0226Z" fill="#767171" fill-rule="evenodd"/><path d="M280.029 23.8821 318.367 23.8821 318.367 64.0226 280.029 64.0226Z" fill="#AFABAB" fill-rule="evenodd"/><path d="M241.691 64.0226 280.029 64.0226 280.029 104.163 241.691 104.163Z" fill="#3B3838" fill-rule="evenodd"/><path d="M280.029 104.163 318.367 104.163 318.367 144.303 280.029 144.303Z" fill="#AFABAB" fill-rule="evenodd"/><path d="M318.367 104.163 356.705 104.163 356.705 144.303 318.367 144.303Z" fill="#D0CECE" fill-rule="evenodd"/><path d="M356.705 104.163 395.043 104.163 395.043 144.303 356.705 144.303Z" fill="#E7E6E6" fill-rule="evenodd"/><path d="M241.691 144.303 280.029 144.303 280.029 184.444 241.691 184.444Z" fill="#3B3838" fill-rule="evenodd"/><path d="M280.029 144.303 318.367 144.303 318.367 184.444 280.029 184.444Z" fill="#767171" fill-rule="evenodd"/><path d="M318.367 184.444 356.705 184.444 356.705 224.584 318.367 224.584Z" fill="#D0CECE" fill-rule="evenodd"/><path d="M356.705 184.444 395.043 184.444 395.043 224.584 356.705 224.584Z" fill="#E7E6E6" fill-rule="evenodd"/><path d="M241.691 224.584 280.029 224.584 280.029 264.725 241.691 264.725Z" fill="#3B3838" fill-rule="evenodd"/><path d="M280.029 224.584 318.367 224.584 318.367 264.725 280.029 264.725Z" fill="#767171" fill-rule="evenodd"/><path d="M318.367 224.584 356.705 224.584 356.705 264.725 318.367 264.725Z" fill="#AFABAB" fill-rule="evenodd"/><path d="M280.029 23.2157 280.029 265.391" stroke="#000000" stroke-width="1.33407" stroke-linejoin="round" stroke-miterlimit="10" fill="none" fill-rule="evenodd"/><path d="M318.367 23.2157 318.367 265.391" stroke="#000000" stroke-width="1.33407" stroke-linejoin="round" stroke-miterlimit="10" fill="none" fill-rule="evenodd"/><path d="M356.705 23.2157 356.705 265.391" stroke="#000000" stroke-width="1.33407" stroke-linejoin="round" stroke-miterlimit="10" fill="none" fill-rule="evenodd"/><path d="M395.043 23.2157 395.043 265.391" stroke="#000000" stroke-width="1.33407" stroke-linejoin="round" stroke-miterlimit="10" fill="none" fill-rule="evenodd"/><path d="M433.381 23.2157 433.381 265.391" stroke="#000000" stroke-width="1.33407" stroke-linejoin="round" stroke-miterlimit="10" fill="none" fill-rule="evenodd"/><path d="M471.719 23.2157 471.719 265.391" stroke="#000000" stroke-width="1.33407" stroke-linejoin="round" stroke-miterlimit="10" fill="none" fill-rule="evenodd"/><path d="M510.057 23.2157 510.057 265.391" stroke="#000000" stroke-width="1.33407" stroke-linejoin="round" stroke-miterlimit="10" fill="none" fill-rule="evenodd"/><path d="M241.024 64.0226 549.062 64.0226" stroke="#000000" stroke-width="1.33407" stroke-linejoin="round" stroke-miterlimit="10" fill="none" fill-rule="evenodd"/><path d="M241.024 104.163 549.062 104.163" stroke="#000000" stroke-width="1.33407" stroke-linejoin="round" stroke-miterlimit="10" fill="none" fill-rule="evenodd"/><path d="M241.024 144.303 549.062 144.303" stroke="#000000" stroke-width="1.33407" stroke-linejoin="round" stroke-miterlimit="10" fill="none" fill-rule="evenodd"/><path d="M241.024 184.444 549.062 184.444" stroke="#000000" stroke-width="1.33407" stroke-linejoin="round" stroke-miterlimit="10" fill="none" fill-rule="evenodd"/><path d="M241.024 224.584 549.062 224.584" stroke="#000000" stroke-width="1.33407" stroke-linejoin="round" stroke-miterlimit="10" fill="none" fill-rule="evenodd"/><path d="M241.691 23.2157 241.691 265.391" stroke="#000000" stroke-width="1.33407" stroke-linejoin="round" stroke-miterlimit="10" fill="none" fill-rule="evenodd"/><path d="M548.395 23.2157 548.395 265.391" stroke="#000000" stroke-width="1.33407" stroke-linejoin="round" stroke-miterlimit="10" fill="none" fill-rule="evenodd"/><path d="M241.024 23.8821 549.062 23.8821" stroke="#000000" stroke-width="1.33407" stroke-linejoin="round" stroke-miterlimit="10" fill="none" fill-rule="evenodd"/><path d="M241.024 264.725 549.062 264.725" stroke="#000000" stroke-width="1.33407" stroke-linejoin="round" stroke-miterlimit="10" fill="none" fill-rule="evenodd"/><path d="M0 0 10.931 45.2999" stroke="#000000" stroke-width="1.99925" stroke-miterlimit="8" fill="none" fill-rule="evenodd" transform="matrix(1.00093 0 0 -1 34 337.029)"/><path d="M34 336.687 66.9183 348.798" stroke="#000000" stroke-width="2.0011" stroke-miterlimit="8" fill="none" fill-rule="evenodd"/><path d="M43.298 303.439C56.7988 309.322 62.2137 326.758 55.3925 342.384" stroke="#000000" stroke-width="2.00081" stroke-miterlimit="8" fill="none" fill-rule="evenodd"/><path d="M83 129.879 212.243 440.801" stroke="#000000" stroke-width="2.0011" stroke-miterlimit="8" fill="none" fill-rule="evenodd"/><path d="M0.750314-0.660511 271.992 307.459 270.491 308.78-0.750314 0.660511ZM273.361 304.475 275.643 313.12 267.358 309.759Z" transform="matrix(1.00093 0 0 -1 50 314.119)"/><path d="M0.54268-0.839491 479.321 308.662 478.236 310.341-0.54268 0.839491ZM479.831 305.42 484.376 313.12 475.49 312.136Z" transform="matrix(1.00093 0 0 -1 50 314.119)"/><path d="M0.301808-0.952973 545.234 171.628 544.631 173.534-0.301808 0.952973ZM544.871 168.367 551.287 174.593 542.456 175.991Z" transform="matrix(1.00093 0 0 -1 50 314.463)"/><text font-family="Times New Roman,Times New Roman_MSFontService,sans-serif" font-weight="400" font-size="24" transform="matrix(1 0 0 0.999072 9.60529 383)">Eye/Camera</text><text font-family="Times New Roman,Times New Roman_MSFontService,sans-serif" font-weight="400" font-size="24" transform="matrix(1 0 0 0.999072 198.754 401)">Screen</text><text font-family="Times New Roman,Times New Roman_MSFontService,sans-serif" font-weight="400" font-size="24" transform="matrix(1 0 0 0.999072 132.728 193)">Casted ray</text></g></svg>